<svg xmlns="http://www.w3.org/2000/svg" xmlns:xlink="http://www.w3.org/1999/xlink" version="1.1" width="612.0768pt" height="200.00293pt" viewBox="0 0 612.0768 200.00293" style="background-color:white">
<g>
<path transform="matrix(1,0,0,-1,-114.527378,-191.13184)" stroke-width=".7967" stroke-linecap="butt" stroke-miterlimit="10" stroke-linejoin="miter" fill="none" stroke="#000000" d="M115.004-191.535H726.773"/>
<text xml:space="preserve" transform="matrix(1 0 0 1 -114.527378 -191.13184)" font-size="9.958844" font-family="CMBX10" font-weight="bold"><tspan y="200.84125" x="122.47456 131.1288 134.30567 140.032 145.75833 150.46887 153.64574 158.09734 164.48096 174.02153 183.08408 192.63462">Algorithme1:</tspan></text>
<text xml:space="preserve" transform="matrix(1 0 0 1 -114.527378 -191.13184)" font-size="9.958844" font-family="CMR10"><tspan y="200.84125" x="199.13773 205.90975 209.83353 214.25525 219.78241 225.30957 230.58776 235.00948 240.2777 245.80486 253.55283 259.08 266.82798 269.58659 277.90223 280.93968 285.9191 291.44627 295.86799 299.73204 302.5205 307.49995 316.35337 319.3908 324.37025 329.8974 334.31913">Pseudocodedelafonctionjouer</tspan></text>
<path transform="matrix(1,0,0,-1,-114.527378,-191.13184)" stroke-width=".39785" stroke-linecap="butt" stroke-miterlimit="10" stroke-linejoin="miter" fill="none" stroke="#000000" d="M338.828-200.641H341.816"/>
<text xml:space="preserve" transform="matrix(1 0 0 1 -114.527378 -191.13184)" font-size="9.958844" font-family="CMR10"><tspan y="200.84125" x="341.81486 350.11058 355.09 358.95405 363.11683">match</tspan></text>
<path transform="matrix(1,0,0,-1,-114.527378,-191.13184)" stroke-width=".7967" stroke-linecap="butt" stroke-miterlimit="10" stroke-linejoin="miter" fill="none" stroke="#000000" d="M115.004-205.168H726.773"/>
<text xml:space="preserve" transform="matrix(1 0 0 1 -114.527378 -191.13184)" font-size="9.958844" font-family="CMBX10" font-weight="bold"><tspan y="215.0269" x="129.94374 137.46266 143.51764 147.96924 152.44077 152.67978 157.92809 163.17639 171.51195">Entr&#x00b4;ees:</tspan></text>
<text xml:space="preserve" transform="matrix(1 0 0 1 -114.527378 -191.13184)" font-size="9.958844" font-family="CMR10"><tspan y="215.0269" x="178.01506 185.61367">Di</tspan></text>
<text xml:space="preserve" transform="matrix(1 0 0 1 -114.527378 -191.13184)" font-size="9.958844" font-family="CMR10"><tspan y="215.0269" x="188.37227">&#xfb00;</tspan></text>
<text xml:space="preserve" transform="matrix(1 0 0 1 -114.527378 -191.13184)" font-size="9.958844" font-family="CMR10"><tspan y="215.0269" x="193.91934 194.19818 198.6199 202.51381 206.93553 212.46269 216.91429 224.65232 230.17948 237.93741 243.46457 248.99173 252.85576 259.84687 260.12574 264.54747 269.79579 275.32295 278.08155 283.91743 291.65544 296.90376 299.66236 303.58616 306.37464 310.23869 314.6604 320.18757 327.42765 331.2917 334.0503 339.57746 342.36595">&#x00b4;erencedebuts&#x00b4;equipevisiteur(&#x2018;dif</tspan></text>
<path transform="matrix(1,0,0,-1,-114.527378,-191.13184)" stroke-width=".39785" stroke-linecap="butt" stroke-miterlimit="10" stroke-linejoin="miter" fill="none" stroke="#000000" d="M346.008-214.828H348.996"/>
<text xml:space="preserve" transform="matrix(1 0 0 1 -114.527378 -191.13184)" font-size="9.958844" font-family="CMR10"><tspan y="215.0269" x="348.99516 354.24348 357.00209 360.92588 363.71437 370.90467 375.3264 382.52665 390.12525">vis&#x2018;)etDi</tspan></text>
<text xml:space="preserve" transform="matrix(1 0 0 1 -114.527378 -191.13184)" font-size="9.958844" font-family="CMR10"><tspan y="215.0269" x="392.88386">&#xfb00;</tspan></text>
<text xml:space="preserve" transform="matrix(1 0 0 1 -114.527378 -191.13184)" font-size="9.958844" font-family="CMR10"><tspan y="215.0269" x="398.4309 398.70979 403.1315 407.02543 411.44715 416.9743 421.39604 429.1639 434.69108 442.43907 447.96623 453.49339 457.35743 464.34855 464.6274 469.04914 474.29747 479.82463 482.6131 488.4191 496.16709 501.69425 506.67369 514.9694 517.728 522.1498 524.93826 527.69686 535.4448 539.30886 542.06747 547.5946 550.38308">&#x00b4;erencedebuts&#x00b4;equipedomicile(&#x2018;dif</tspan></text>
<path transform="matrix(1,0,0,-1,-114.527378,-191.13184)" stroke-width=".39785" stroke-linecap="butt" stroke-miterlimit="10" stroke-linejoin="miter" fill="none" stroke="#000000" d="M554.027-214.828H557.016"/>
<text xml:space="preserve" transform="matrix(1 0 0 1 -114.527378 -191.13184)" font-size="9.958844" font-family="CMR10"><tspan y="215.0269" x="557.0137 562.54086 567.52029 575.816 578.5746">dom&#x2018;)</tspan></text>
<text xml:space="preserve" transform="matrix(1 0 0 1 -114.527378 -191.13184)" font-size="9.958844" font-family="CMBX10" font-weight="bold"><tspan y="226.9784" x="129.94373 136.29747 142.0238 146.73435 151.18595 154.36281 159.61112 167.96659">Sorties:</tspan></text>
<text xml:space="preserve" transform="matrix(1 0 0 1 -114.527378 -191.13184)" font-size="9.958844" font-family="CMR10"><tspan y="226.9784" x="174.4697 181.52056 181.7994 186.22112 190.1449 195.67206 198.43067 202.32457 207.30399 214.49427 220.02143 228.8848 237.18051 242.15993 246.02396 250.18675">R&#x00b4;esultatdumatch</tspan></text>
<text xml:space="preserve" transform="matrix(1 0 0 1 -114.527378 -191.13184)" font-size="7.967095" font-family="CMR8"><tspan y="238.9289" x="120.731227">1</tspan></text>
<text xml:space="preserve" transform="matrix(1 0 0 1 -114.527378 -191.13184)" font-size="9.958844" font-family="CMBX10" font-weight="bold"><tspan y="238.9289" x="129.94374 136.06844 136.30745 141.55576 147.9095 154.26325">d&#x00b4;ebut</tspan></text>
<path transform="matrix(1,0,0,-1,-114.527378,-191.13184)" stroke-width=".39785" stroke-linecap="butt" stroke-miterlimit="10" stroke-linejoin="miter" fill="none" stroke="#000000" d="M135.121-374.965V-242.512"/>
<text xml:space="preserve" transform="matrix(1 0 0 1 -114.527378 -191.13184)" font-size="7.967095" font-family="CMR8"><tspan y="250.87938" x="121.13007">2</tspan></text>
<text xml:space="preserve" transform="matrix(1 0 0 1 -114.527378 -191.13184)" font-size="9.958844" font-family="CMR10"><tspan y="250.87938" x="145.27997 152.47026 157.44968 160.20829 164.63 170.15717 172.94565 177.36737 184.58753 187.34613 195.66176 201.18892">Calculerladi</tspan></text>
<text xml:space="preserve" transform="matrix(1 0 0 1 -114.527378 -191.13184)" font-size="9.958844" font-family="CMR10"><tspan y="250.87938" x="203.94753">&#xfb00;</tspan></text>
<text xml:space="preserve" transform="matrix(1 0 0 1 -114.527378 -191.13184)" font-size="9.958844" font-family="CMR10"><tspan y="250.87938" x="209.48464 209.76348 214.1852 218.0791 222.50083 228.05786 232.47959 240.2176 244.08164 249.06105 252.92508 257.9045 260.693 268.431 272.85273 278.12095 281.985 285.8789 293.63685 296.39546 300.81718 308.07719 313.60435 318.02607 323.55323 331.86888 332.14775 336.56947 341.81779 347.34495 350.13343 355.93943 360.36116 364.28495">&#x00b4;erencetotaleentrelesdeux&#x00b4;equipes;</tspan></text>
<text xml:space="preserve" transform="matrix(1 0 0 1 -114.527378 -191.13184)" font-size="7.967095" font-family="CMR8"><tspan y="262.82987" x="121.13007">3</tspan></text>
<text xml:space="preserve" transform="matrix(1 0 0 1 -114.527378 -191.13184)" font-size="9.958844" font-family="CMR10"><tspan y="262.82987" x="145.27997 152.05199 155.97577 159.8398 162.62828 170.924 175.34572 182.56587 185.32448 189.7462 197.01616 202.54332 208.07048 211.93451 219.1945 224.72167 232.46964 235.22824 237.73787 238.00675 242.42847 247.67678 253.20394 255.96254 261.7984 269.5364 274.78474 277.54335 281.46714 284.2556 288.11967 292.54139 298.06855 302.02223 309.7702 314.19194 323.04536 326.0828 331.06224 336.5894 341.0111 344.87516 347.66365 352.64308 361.4965 367.02366 374.7816 379.2033 383.62504 387.48908 391.35313 399.121 404.64817">Estimerlesbutsdel&#x2019;&#x00b4;equipevisiteuseenfonctiondecettedi</tspan></text>
<text xml:space="preserve" transform="matrix(1 0 0 1 -114.527378 -191.13184)" font-size="9.958844" font-family="CMR10"><tspan y="262.82987" x="407.40678">&#xfb00;</tspan></text>
<text xml:space="preserve" transform="matrix(1 0 0 1 -114.527378 -191.13184)" font-size="9.958844" font-family="CMR10"><tspan y="262.82987" x="412.95384 413.2327 417.65443 421.54835 425.97007 431.49723 435.91896 440.34068">&#x00b4;erence;</tspan></text>
<text xml:space="preserve" transform="matrix(1 0 0 1 -114.527378 -191.13184)" font-size="7.967095" font-family="CMR8"><tspan y="274.78038" x="121.13007">4</tspan></text>
<text xml:space="preserve" transform="matrix(1 0 0 1 -114.527378 -191.13184)" font-size="9.958844" font-family="CMR10"><tspan y="274.78038" x="145.27997 152.05199 155.97577 159.8398 162.62828 170.924 175.34572 182.56587 185.32448 189.7462 197.01616 202.54332 208.07048 211.93451 219.1945 224.72167 232.46964 235.22824 237.73787 238.00675 242.42847 247.67678 253.20394 255.96254 261.7984 269.5364 275.06358 280.043 288.3387 291.09733 295.54893 298.30754 301.06614 308.834 313.25575 322.10917 325.1466 330.12605 335.6532 340.07493 343.93898 346.72746 351.70689 360.55033 366.07749 373.83543 378.25715 382.67887 386.5429 390.43684 398.17485 403.702">Estimerlesbutsdel&#x2019;&#x00b4;equipedomicileenfonctiondecettedi</tspan></text>
<text xml:space="preserve" transform="matrix(1 0 0 1 -114.527378 -191.13184)" font-size="9.958844" font-family="CMR10"><tspan y="274.78038" x="406.4606">&#xfb00;</tspan></text>
<text xml:space="preserve" transform="matrix(1 0 0 1 -114.527378 -191.13184)" font-size="9.958844" font-family="CMR10"><tspan y="274.78038" x="412.00767 412.28654 416.70826 420.60218 425.0239 430.55107 435.00267 439.42439">&#x00b4;erence;</tspan></text>
<text xml:space="preserve" transform="matrix(1 0 0 1 -114.527378 -191.13184)" font-size="7.967095" font-family="CMR8"><tspan y="286.73088" x="121.13007">5</tspan></text>
<text xml:space="preserve" transform="matrix(1 0 0 1 -114.527378 -191.13184)" font-size="9.958844" font-family="CMBX10" font-weight="bold"><tspan y="286.73088" x="145.27997 149.79132">si</tspan></text>
<text xml:space="preserve" transform="matrix(1 0 0 1 -114.527378 -191.13184)" font-size="9.958844" font-family="CMTI10" font-style="italic"><tspan y="286.73088" x="156.29444 158.83394 163.41501 171.0634 176.15238 180.73345 186.07138 194.00858 194.25756 198.83863 203.4197 208.75763 211.80504 216.39608 220.97714 228.61557 233.70455 239.30142 246.18299 248.72249 256.85887 264.75624 265.0052 269.58625 277.72264 285.8789 291.47578 296.56474 304.7011 309.28218 312.98689 321.1332 326.22218 334.3685 338.94956 344.2875 347.59385">lesdeux&#x00b4;equipesontlem&#x02c6;emenombredebuts</tspan></text>
<text xml:space="preserve" transform="matrix(1 0 0 1 -114.527378 -191.13184)" font-size="9.958844" font-family="CMBX10" font-weight="bold"><tspan y="286.73088" x="355.80989 361.37687 364.55375 370.2801 374.99064">alors</tspan></text>
<path transform="matrix(1,0,0,-1,-114.527378,-191.13184)" stroke-width=".39785" stroke-linecap="butt" stroke-miterlimit="10" stroke-linejoin="miter" fill="none" stroke="#000000" d="M150.461-326.168V-290.316"/>
<text xml:space="preserve" transform="matrix(1 0 0 1 -114.527378 -191.13184)" font-size="7.967095" font-family="CMR8"><tspan y="298.68235" x="121.52792">6</tspan></text>
<text xml:space="preserve" transform="matrix(1 0 0 1 -114.527378 -191.13184)" font-size="9.958844" font-family="CMR10"><tspan y="298.68235" x="160.61717 167.94689 168.22573 172.64745 177.06917 179.82778 185.35494 189.80654 197.01674 200.94052 207.03534 209.79395 217.55188 225.8476 230.82701 234.69104 238.84387 247.70725 252.12897 257.1084 262.36668 266.2307 268.98933 274.25755 279.7847 287.53269 291.9544 300.81779 306.34495 310.23887 315.2183 317.9769 322.95634 328.51338 333.4928 338.47224 342.33628 345.09489 350.0743 358.93769 363.9171 372.77055 377.19227 386.05564 389.09309 394.62025 398.54405 401.30265 404.06126 406.84974 411.82917 417.35633 421.77806">D&#x00b4;ecidersilematchcontinueenprolongationouenfusillade;</tspan></text>
<text xml:space="preserve" transform="matrix(1 0 0 1 -114.527378 -191.13184)" font-size="7.967095" font-family="CMR8"><tspan y="310.63285" x="121.52792">7</tspan></text>
<text xml:space="preserve" transform="matrix(1 0 0 1 -114.527378 -191.13184)" font-size="9.958844" font-family="CMR10"><tspan y="310.63285" x="160.61717 167.80747 173.33463 178.31404 181.07265 184.99643 187.78491 194.99512 199.97454 202.46425 202.74309 207.16481 212.14423 216.00826 220.98767 223.74628 227.67006 232.09178 240.3875 244.80922 250.0874 257.27769 260.0363 262.526 262.80488 267.2266 272.4749 278.00209 280.79057 286.60655 294.34455 299.32398 304.3034 309.28285 314.81 319.78944 325.0477 328.91175 333.33348">Choisiral&#x00b4;eatoirementl&#x2019;&#x00b4;equipegagnante;</tspan></text>
<text xml:space="preserve" transform="matrix(1 0 0 1 -114.527378 -191.13184)" font-size="7.967095" font-family="CMR8"><tspan y="322.58335" x="121.52792">8</tspan></text>
<text xml:space="preserve" transform="matrix(1 0 0 1 -114.527378 -191.13184)" font-size="9.958844" font-family="CMR10"><tspan y="322.58335" x="160.61717 168.0863 171.12375 176.65091 180.57469 184.4686 188.89032 196.11048 198.86908 203.2908 210.5508 216.07796 221.60512 225.46915 232.7391 237.16083 244.3511 247.10971 251.53144 258.8014 264.59745 269.57688 272.33549 277.61369 281.47773 288.72779 292.65159 297.0733 299.8319 304.81135 313.6747 316.43333 324.19126 327.81629 328.09516 332.51689 336.44068 341.96784 344.72645 348.62037 353.5998 357.46385">Ajusterlesbutsetlespointsselonler&#x00b4;esultat;</tspan></text>
<text xml:space="preserve" transform="matrix(1 0 0 1 -114.527378 -191.13184)" font-size="7.967095" font-family="CMR8"><tspan y="335.52946" x="121.13007">9</tspan></text>
<text xml:space="preserve" transform="matrix(1 0 0 1 -114.527378 -191.13184)" font-size="9.958844" font-family="CMBX10" font-weight="bold"><tspan y="335.52946" x="145.27997 149.79132 152.96819 159.32193 165.04827">sinon</tspan></text>
<path transform="matrix(1,0,0,-1,-114.527378,-191.13184)" stroke-width=".39785" stroke-linecap="butt" stroke-miterlimit="10" stroke-linejoin="miter" fill="none" stroke="#000000" d="M150.461-351.066V-339.113"/>
<text xml:space="preserve" transform="matrix(1 0 0 1 -114.527378 -191.13184)" font-size="7.967095" font-family="CMR8"><tspan y="347.47996" x="117.29552 121.52605">10</tspan></text>
<text xml:space="preserve" transform="matrix(1 0 0 1 -114.527378 -191.13184)" font-size="9.958844" font-family="CMR10"><tspan y="347.47996" x="160.61717 167.80745 171.67148 175.5355 179.42942 182.2179 187.74506 193.27222 197.69394 204.93402 210.46118 214.8829 222.1429 227.95886 232.93828 235.69689 240.95516 244.81919 252.06922 255.993 260.41474 263.17335 268.15278 277.0261 279.7847 282.28437 282.55326 286.97499 292.2233 297.75047 300.53895 306.34495 314.09294 319.34126 324.8684 330.97319 339.2689 347.5646 352.54405 356.43797 361.68629 366.9545 367.23338 374.98136 377.73997 385.4979 391.02507 393.78367 399.31083 406.57084 412.098 419.84599 425.37315 430.9003 434.76435 438.71803">Attribuerdespointsselonl&#x2019;&#x00b4;equipequiamarqu&#x00b4;eleplusdebuts;</tspan></text>
<text xml:space="preserve" transform="matrix(1 0 0 1 -114.527378 -191.13184)" font-size="7.967095" font-family="CMR8"><tspan y="359.43147" x="116.89767 121.1282">11</tspan></text>
<text xml:space="preserve" transform="matrix(1 0 0 1 -114.527378 -191.13184)" font-size="9.958844" font-family="CMBX10" font-weight="bold"><tspan y="359.43147" x="145.27997">&#xfb01;</tspan></text>
<text xml:space="preserve" transform="matrix(1 0 0 1 -114.527378 -191.13184)" font-size="9.958844" font-family="CMBX10" font-weight="bold"><tspan y="359.43147" x="151.63372">n</tspan></text>
<text xml:space="preserve" transform="matrix(1 0 0 1 -114.527378 -191.13184)" font-size="7.967095" font-family="CMR8"><tspan y="371.38194" x="116.89767 121.1282">12</tspan></text>
<text xml:space="preserve" transform="matrix(1 0 0 1 -114.527378 -191.13184)" font-size="9.958844" font-family="CMBX10" font-weight="bold"><tspan y="371.38194" x="145.27997 149.99051 155.23882 159.69042 165.41675 171.7705 176.48104 182.86466 188.11296">retourner</tspan></text>
<text xml:space="preserve" transform="matrix(1 0 0 1 -114.527378 -191.13184)" font-size="9.958844" font-family="CMR10"><tspan y="371.38194" x="196.14975 198.90836 203.33008 210.59008 216.40604 221.38545 224.14406 229.40233 233.26636 240.52635 246.05352 250.47524 257.4564 257.73527 262.15699 267.4053 272.93247 275.69108 281.52696 285.94868 289.87248 295.9673 298.7259 303.1476 310.40763 315.93479 321.46195 325.326 332.59596 340.89167 345.8711 349.765 355.01335 360.28157 360.56044 364.98216 368.90596 375.00077 379.4225 386.62275 389.38136 397.68705 402.38764 407.36708 410.12568 414.5474 420.07456 427.31465 432.8418 440.58979 445.8381 449.73204 455.2592">lespointsdes&#x00b4;equipes,lesbutsmarqu&#x00b4;es,etlavaleurdevrp;</tspan></text>
<text xml:space="preserve" transform="matrix(1 0 0 1 -114.527378 -191.13184)" font-size="7.967095" font-family="CMR8"><tspan y="384.32807" x="116.49882 120.72935">13</tspan></text>
<text xml:space="preserve" transform="matrix(1 0 0 1 -114.527378 -191.13184)" font-size="9.958844" font-family="CMBX10" font-weight="bold"><tspan y="384.32807" x="129.94374">&#xfb01;</tspan></text>
<text xml:space="preserve" transform="matrix(1 0 0 1 -114.527378 -191.13184)" font-size="9.958844" font-family="CMBX10" font-weight="bold"><tspan y="384.32807" x="136.29749">n</tspan></text>
<path transform="matrix(1,0,0,-1,-114.527378,-191.13184)" stroke-width=".7967" stroke-linecap="butt" stroke-miterlimit="10" stroke-linejoin="miter" fill="none" stroke="#000000" d="M115.004-390.305H726.773"/>
</g>
</svg>
